<?xml version="1.0" encoding="utf-8"?>
<!-- Generator: Adobe Illustrator 19.0.0, SVG Export Plug-In . SVG Version: 6.00 Build 0)  -->
<svg version="1.1" id="Layer_1" xmlns="http://www.w3.org/2000/svg" xmlns:xlink="http://www.w3.org/1999/xlink" x="0px" y="0px"
	 viewBox="892.1 -353 935.5 809.8" style="enable-background:new 892.1 -353 935.5 809.8;" xml:space="preserve">
<style type="text/css">
	.st0{fill:#FFFFFF;}
</style>
<g>
	<path class="st0" d="M1021,456.8c-42.9,0-85.4,0-128.9,0c79.8-138.1,159.3-275.7,238.8-413.3c0.3,0.1,0.5,0.2,0.8,0.4
		C1094.8,181.5,1057.9,319.1,1021,456.8z"/>
	<path class="st0" d="M1827.6,456.8c-143.5,0-286.3,0-429,0c-0.1-0.2-0.2-0.4-0.2-0.6c1.2-0.4,2.3-0.9,3.5-1.2
		c121-32.4,241.9-64.8,362.9-97.3c4.1-1.1,5.8-0.2,7.8,3.3c17.4,30.5,35,60.9,52.6,91.3C1825.9,453.5,1826.5,454.8,1827.6,456.8z"/>
	<path class="st0" d="M1309.2-265.2c16.7-28.9,33.5-57.9,50.7-87.8c63.3,109.6,126.2,218.4,189.6,328.2
		C1469-105.4,1389.3-185.1,1309.2-265.2z"/>
</g>
</svg>
